<svg width="182" height="35" viewBox="0 0 182 35" fill="none" xmlns="http://www.w3.org/2000/svg" class="logo-svg">
                    <path d="M55.2164 10.1307C56.9638 10.1307 58.367 10.7396 59.4261 11.9575C60.5028 13.1754 61.0411 15.0111 61.0411 17.4645C61.0411 19.8826 60.5028 21.7183 59.4261 22.9715C58.367 24.2247 56.955 24.8513 55.1899 24.8513C54.0956 24.8513 53.1866 24.6483 52.4629 24.2423C51.7569 23.8187 51.2009 23.3333 50.7949 22.7862H50.6361C50.6714 23.0862 50.7067 23.4657 50.742 23.9246C50.7773 24.3835 50.7949 24.7807 50.7949 25.1161V30.9408H48.4651V10.3954H50.3713L50.689 12.3282H50.7949C51.2186 11.7104 51.7745 11.1897 52.4629 10.7661C53.1513 10.3425 54.0691 10.1307 55.2164 10.1307ZM54.7928 12.0899C53.3454 12.0899 52.3217 12.4959 51.7216 13.3078C51.1391 14.1197 50.8302 15.3553 50.7949 17.0144V17.4645C50.7949 19.2119 51.0773 20.5622 51.6422 21.5153C52.2246 22.4508 53.2925 22.9185 54.8458 22.9185C55.7106 22.9185 56.4167 22.6803 56.9638 22.2037C57.5286 21.7271 57.9434 21.0829 58.2082 20.271C58.4906 19.4414 58.6318 18.4971 58.6318 17.438C58.6318 15.8142 58.3141 14.5169 57.6787 13.5461C57.0609 12.5753 56.0989 12.0899 54.7928 12.0899Z" fill="black"></path>
                    <path d="M77.0917 17.4645C77.0917 19.812 76.4916 21.6301 75.2914 22.9185C74.1088 24.207 72.5026 24.8513 70.4727 24.8513C69.2196 24.8513 68.0987 24.5689 67.1103 24.0041C66.1395 23.4216 65.3717 22.5832 64.8069 21.4888C64.2421 20.3769 63.9597 19.0354 63.9597 17.4645C63.9597 15.117 64.551 13.3078 65.7336 12.037C66.9161 10.7661 68.5224 10.1307 70.5522 10.1307C71.8407 10.1307 72.9703 10.4219 73.9411 11.0044C74.9295 11.5692 75.6973 12.3988 76.2445 13.4931C76.8093 14.5698 77.0917 15.8936 77.0917 17.4645ZM66.369 17.4645C66.369 19.1413 66.6955 20.4739 67.3486 21.4624C68.0193 22.4332 69.0783 22.9185 70.5257 22.9185C71.9554 22.9185 73.0056 22.4332 73.6763 21.4624C74.3471 20.4739 74.6824 19.1413 74.6824 17.4645C74.6824 15.7877 74.3471 14.4727 73.6763 13.5196C73.0056 12.5665 71.9466 12.0899 70.4992 12.0899C69.0519 12.0899 68.0017 12.5665 67.3486 13.5196C66.6955 14.4727 66.369 15.7877 66.369 17.4645Z" fill="black" ></path>
                    <path d="M90.0244 20.6681C90.0244 22.0448 89.5125 23.0862 88.4888 23.7923C87.465 24.4983 86.0883 24.8513 84.3585 24.8513C83.3701 24.8513 82.514 24.7719 81.7904 24.613C81.0843 24.4542 80.4577 24.2335 79.9106 23.9511V21.833C80.4754 22.1154 81.1549 22.3802 81.9492 22.6273C82.7612 22.8568 83.5819 22.9715 84.4115 22.9715C85.5941 22.9715 86.4501 22.7862 86.9796 22.4155C87.5092 22.0272 87.7739 21.5153 87.7739 20.8799C87.7739 20.5269 87.6768 20.2092 87.4827 19.9268C87.2885 19.6444 86.9355 19.362 86.4237 19.0795C85.9294 18.7971 85.2146 18.4794 84.2791 18.1264C83.3613 17.7734 82.5758 17.4204 81.9227 17.0674C81.2697 16.7144 80.7666 16.2907 80.4136 15.7965C80.0606 15.3023 79.8841 14.6669 79.8841 13.8903C79.8841 12.69 80.3695 11.7634 81.3403 11.1103C82.3287 10.4572 83.6172 10.1307 85.2058 10.1307C86.0706 10.1307 86.8737 10.2189 87.6151 10.3954C88.374 10.5543 89.0801 10.7838 89.7331 11.0838L88.9389 12.9371C88.3387 12.69 87.7122 12.4782 87.0591 12.3017C86.406 12.1252 85.7353 12.037 85.0469 12.037C84.0938 12.037 83.3613 12.1958 82.8494 12.5135C82.3552 12.8136 82.1081 13.2284 82.1081 13.7579C82.1081 14.1462 82.2228 14.4816 82.4523 14.764C82.6817 15.0287 83.0612 15.2935 83.5907 15.5582C84.1379 15.8054 84.8616 16.1054 85.7618 16.4584C86.6619 16.7938 87.4297 17.138 88.0652 17.491C88.7006 17.844 89.186 18.2764 89.5213 18.7883C89.8567 19.2825 90.0244 19.9091 90.0244 20.6681Z" fill="black"></path>
                    <path d="M98.1926 22.945C98.5456 22.945 98.9075 22.9185 99.2781 22.8656C99.6488 22.795 99.9488 22.7244 100.178 22.6538V24.4277C99.9312 24.5512 99.5782 24.6483 99.1193 24.7189C98.6604 24.8072 98.2191 24.8513 97.7955 24.8513C97.0541 24.8513 96.3658 24.7277 95.7304 24.4806C95.1126 24.2159 94.6095 23.7658 94.2212 23.1304C93.8329 22.4949 93.6388 21.6036 93.6388 20.4563V12.1958H91.6266V11.0838L93.6652 10.1572L94.5919 7.13891H95.9686V10.3954H100.072V12.1958H95.9686V20.4033C95.9686 21.2682 96.1716 21.9125 96.5776 22.3361C97.0012 22.742 97.5395 22.945 98.1926 22.945Z" fill="black"></path>
                    <path d="M105.35 24.5865H103.02V4.46484H105.35V24.5865Z" fill="black"></path>
                    <path d="M115.22 10.1572C116.95 10.1572 118.23 10.5367 119.059 11.2956C119.889 12.0546 120.304 13.2637 120.304 14.9228V24.5865H118.609L118.159 22.5744H118.053C117.435 23.351 116.782 23.9246 116.094 24.2953C115.423 24.666 114.488 24.8513 113.288 24.8513C111.999 24.8513 110.931 24.5159 110.084 23.8452C109.237 23.1568 108.813 22.089 108.813 20.6416C108.813 19.2296 109.369 18.1441 110.481 17.3851C111.593 16.6085 113.305 16.1848 115.617 16.1142L118.027 16.0348V15.1876C118.027 14.005 117.771 13.1842 117.259 12.7253C116.747 12.2664 116.023 12.037 115.088 12.037C114.347 12.037 113.641 12.1517 112.97 12.3811C112.299 12.5929 111.673 12.8401 111.09 13.1225L110.375 11.3751C110.993 11.0397 111.726 10.7573 112.573 10.5278C113.42 10.2807 114.303 10.1572 115.22 10.1572ZM115.909 17.7293C114.144 17.7999 112.917 18.0823 112.229 18.5765C111.558 19.0707 111.222 19.7679 111.222 20.6681C111.222 21.4624 111.461 22.0448 111.937 22.4155C112.432 22.7862 113.058 22.9715 113.817 22.9715C115.017 22.9715 116.015 22.645 116.809 21.9919C117.603 21.3212 118 20.2974 118 18.9207V17.6498L115.909 17.7293Z" fill="black"></path>
                    <path d="M129.426 22.945C129.779 22.945 130.141 22.9185 130.511 22.8656C130.882 22.795 131.182 22.7244 131.412 22.6538V24.4277C131.164 24.5512 130.811 24.6483 130.353 24.7189C129.894 24.8072 129.452 24.8513 129.029 24.8513C128.287 24.8513 127.599 24.7277 126.964 24.4806C126.346 24.2159 125.843 23.7658 125.455 23.1304C125.066 22.4949 124.872 21.6036 124.872 20.4563V12.1958H122.86V11.0838L124.899 10.1572L125.825 7.13891H127.202V10.3954H131.306V12.1958H127.202V20.4033C127.202 21.2682 127.405 21.9125 127.811 22.3361C128.234 22.742 128.773 22.945 129.426 22.945Z" fill="black"></path>
                    <path d="M139.734 10.1307C140.952 10.1307 141.993 10.3954 142.858 10.925C143.74 11.4545 144.411 12.2046 144.87 13.1754C145.347 14.1285 145.585 15.2494 145.585 16.5379V17.9411H135.868C135.904 19.5473 136.31 20.774 137.086 21.6212C137.88 22.4508 138.984 22.8656 140.396 22.8656C141.296 22.8656 142.09 22.7862 142.778 22.6273C143.484 22.4508 144.208 22.2037 144.949 21.886V23.9246C144.226 24.2423 143.511 24.4718 142.805 24.613C142.099 24.7719 141.26 24.8513 140.29 24.8513C138.948 24.8513 137.757 24.5777 136.715 24.0305C135.692 23.4834 134.889 22.6714 134.306 21.5948C133.741 20.5004 133.459 19.1678 133.459 17.5969C133.459 16.0436 133.715 14.711 134.227 13.599C134.756 12.487 135.489 11.631 136.424 11.0309C137.377 10.4307 138.481 10.1307 139.734 10.1307ZM139.707 12.037C138.595 12.037 137.713 12.3988 137.06 13.1225C136.424 13.8285 136.045 14.8169 135.921 16.0878H143.149C143.131 14.8875 142.849 13.9167 142.302 13.1754C141.755 12.4164 140.89 12.037 139.707 12.037Z" fill="black"></path>
                    <path d="M155.817 10.1307C156.081 10.1307 156.364 10.1483 156.664 10.1836C156.982 10.2013 157.255 10.2366 157.485 10.2895L157.193 12.4341C156.964 12.3811 156.708 12.337 156.426 12.3017C156.161 12.2664 155.905 12.2488 155.658 12.2488C154.934 12.2488 154.255 12.4517 153.619 12.8577C152.984 13.246 152.472 13.802 152.084 14.5257C151.713 15.2317 151.528 16.0613 151.528 17.0144V24.5865H149.198V10.3954H151.104L151.369 12.9901H151.475C151.933 12.2135 152.525 11.5427 153.248 10.9779C153.972 10.4131 154.828 10.1307 155.817 10.1307Z" fill="black"></path>
                    <path fill-rule="evenodd" clip-rule="evenodd" d="M52.2295 24.645L52.2237 24.6415C51.8485 24.4164 51.5091 24.1722 51.2073 23.9084C51.2422 24.3672 51.2601 24.7704 51.2601 25.1163V31.4062H48V9.9306H50.7663L50.9988 11.3451C51.3526 10.9777 51.7601 10.6528 52.2192 10.3703C53.0055 9.88642 54.0174 9.66585 55.2165 9.66585C57.0853 9.66585 58.6208 10.3236 59.776 11.6513C60.9571 12.9884 61.5063 14.9548 61.5063 17.4648C61.5063 19.9429 60.9557 21.9043 59.7803 23.2734C58.6256 24.6389 57.0796 25.3167 55.19 25.3167C54.0406 25.3167 53.0473 25.1037 52.2354 24.6483L52.2295 24.645ZM59.4262 22.9718C60.5028 21.7186 61.0412 19.8829 61.0412 17.4648C61.0412 15.0114 60.5028 13.1757 59.4262 11.9578C58.3671 10.7399 56.9639 10.131 55.2165 10.131C54.0692 10.131 53.1514 10.3428 52.463 10.7664C51.9268 11.0963 51.471 11.4852 51.0955 11.9329C50.994 12.0539 50.8983 12.1792 50.8085 12.3088C50.804 12.3154 50.7995 12.3219 50.795 12.3285H50.6891L50.3714 10.3957H48.4651V30.941H50.795V25.1163C50.795 24.781 50.7774 24.3838 50.7421 23.9249C50.7277 23.7386 50.7134 23.5654 50.6991 23.4053C50.6944 23.3526 50.6896 23.3014 50.6849 23.2516C50.6728 23.1234 50.6607 23.0046 50.6486 22.8951C50.6444 22.8578 50.6403 22.8216 50.6362 22.7865H50.795C50.9022 22.9309 51.0198 23.0711 51.1479 23.2069C51.505 23.5856 51.9434 23.9309 52.463 24.2426C53.1867 24.6486 54.0957 24.8516 55.19 24.8516C56.9551 24.8516 58.3671 24.225 59.4262 22.9718ZM56.6639 21.8485C57.1528 21.436 57.5239 20.8697 57.7661 20.1271L57.7679 20.1213C58.0309 19.3489 58.1667 18.4567 58.1667 17.4383C58.1667 15.8702 57.8593 14.6716 57.2896 13.8011L57.2863 13.7961C56.7667 12.9796 55.9653 12.5553 54.7929 12.5553C53.4272 12.5553 52.5768 12.9358 52.0977 13.5819C51.597 14.2816 51.2951 15.4032 51.2601 17.0197V17.4648C51.2601 19.1696 51.537 20.4228 52.0397 21.274C52.5057 22.0187 53.3837 22.4537 54.8458 22.4537C55.6211 22.4537 56.2116 22.2424 56.6584 21.8532L56.6639 21.8485ZM51.6422 21.5156C51.0774 20.5625 50.795 19.2122 50.795 17.4648V17.0147C50.8303 15.3556 51.1392 14.12 51.7217 13.3081C52.3218 12.4962 53.3455 12.0902 54.7929 12.0902C56.099 12.0902 57.061 12.5756 57.6787 13.5464C58.3142 14.5172 58.6319 15.8145 58.6319 17.4383C58.6319 18.4974 58.4907 19.4417 58.2083 20.2713C57.9435 21.0832 57.5287 21.7274 56.9639 22.204C56.4167 22.6806 55.7107 22.9188 54.8458 22.9188C53.2926 22.9188 52.2247 22.4511 51.6422 21.5156ZM66.8753 24.4058L66.8711 24.4032C65.8197 23.7724 64.9945 22.8666 64.3936 21.7025L64.3923 21.6998C63.7868 20.5078 63.4946 19.0904 63.4946 17.4648C63.4946 15.0418 64.1057 13.1038 65.3931 11.7204C66.6787 10.3388 68.4171 9.66585 70.5522 9.66585C71.9113 9.66585 73.1246 9.97343 74.1762 10.6033C75.2471 11.2163 76.0744 12.1148 76.6585 13.2813C77.2656 14.4405 77.5569 15.8418 77.5569 17.4648C77.5569 19.8892 76.9362 21.8348 75.6329 23.2347C74.3479 24.634 72.6093 25.3167 70.4728 25.3167C69.1471 25.3167 67.9452 25.0171 66.8796 24.4082L66.8753 24.4058ZM73.9412 11.0047C72.9704 10.4222 71.8407 10.131 70.5522 10.131C68.5224 10.131 66.9162 10.7664 65.7336 12.0372C64.551 13.3081 63.9597 15.1173 63.9597 17.4648C63.9597 19.0357 64.2422 20.3772 64.807 21.4891C65.3718 22.5835 66.1396 23.4219 67.1104 24.0044C68.0988 24.5692 69.2196 24.8516 70.4728 24.8516C72.5026 24.8516 74.1088 24.2073 75.2914 22.9188C76.4917 21.6304 77.0918 19.8123 77.0918 17.4648C77.0918 15.8939 76.8094 14.5701 76.2446 13.4934C75.6974 12.3991 74.9296 11.5695 73.9412 11.0047ZM67.7341 21.2022C67.1498 20.3157 66.8342 19.0843 66.8342 17.4648C66.8342 15.8415 67.1513 14.6308 67.7324 13.7828C68.2766 12.9885 69.1617 12.5553 70.4993 12.5553C71.8364 12.5553 72.7337 12.9885 73.296 13.7876C73.8922 14.6348 74.2174 15.8435 74.2174 17.4648C74.2174 19.0838 73.8931 20.314 73.2926 21.1999C72.7276 22.0164 71.8386 22.4537 70.5258 22.4537C69.1941 22.4537 68.298 22.0156 67.7341 21.2022ZM73.6764 21.4627C73.0057 22.4335 71.9555 22.9188 70.5258 22.9188C69.0784 22.9188 68.0194 22.4335 67.3487 21.4627C66.6956 20.4742 66.3691 19.1416 66.3691 17.4648C66.3691 15.788 66.6956 14.473 67.3487 13.5199C68.0017 12.5668 69.0519 12.0902 70.4993 12.0902C71.9466 12.0902 73.0057 12.5668 73.6764 13.5199C74.3471 14.473 74.6825 15.788 74.6825 17.4648C74.6825 19.1416 74.3471 20.4742 73.6764 21.4627ZM81.6907 25.0676L81.6883 25.0671C80.9502 24.901 80.2852 24.6682 79.6973 24.3647L79.4455 24.2348V21.0807L80.1187 21.4173C80.6539 21.6849 81.3069 21.9404 82.0816 22.1817C82.8512 22.3986 83.6275 22.5067 84.4116 22.5067C85.5634 22.5067 86.2985 22.3226 86.7088 22.0376C87.1207 21.734 87.3089 21.3601 87.3089 20.8802C87.3089 20.6183 87.2386 20.393 87.0995 20.1906C86.9656 19.9959 86.6864 19.756 86.199 19.4871L86.1929 19.4837C85.7302 19.2193 85.0419 18.9117 84.115 18.5619L84.1122 18.5608C83.1814 18.2028 82.3768 17.8418 81.7016 17.4768C80.9999 17.0975 80.4375 16.6304 80.0352 16.0672C79.6119 15.4746 79.419 14.7371 79.419 13.8906C79.419 12.5403 79.9775 11.4668 81.0807 10.7247L81.0839 10.7225C82.1703 10.0047 83.5565 9.66585 85.2058 9.66585C86.0998 9.66585 86.9374 9.75682 87.7166 9.94177C88.5047 10.1072 89.2421 10.3466 89.9274 10.6615L90.3393 10.8507L89.1858 13.5421L88.7618 13.3675C88.1806 13.1282 87.5727 12.9226 86.9378 12.751C86.325 12.5854 85.6951 12.5024 85.047 12.5024C84.1345 12.5024 83.5018 12.6564 83.0948 12.909L83.0909 12.9114C82.7202 13.1365 82.5733 13.4084 82.5733 13.7582C82.5733 14.0445 82.6543 14.2727 82.8087 14.4652C82.9799 14.6602 83.2928 14.8887 83.7907 15.1384C84.3261 15.38 85.0377 15.6751 85.928 16.0243C86.8419 16.3649 87.6309 16.7179 88.2911 17.0847C88.9789 17.4668 89.5248 17.9463 89.9085 18.5307C90.3072 19.1198 90.4896 19.843 90.4896 20.6684C90.4896 22.1789 89.9175 23.3723 88.7529 24.1755C87.6266 24.9522 86.147 25.3167 84.3586 25.3167C83.347 25.3167 82.4559 25.2356 81.6907 25.0676ZM89.5214 18.7886C89.186 18.2767 88.7007 17.8443 88.0652 17.4913C87.4298 17.1383 86.662 16.7941 85.7618 16.4587C84.8616 16.1057 84.138 15.8056 83.5908 15.5585C83.0613 15.2938 82.6818 15.029 82.4523 14.7643C82.2229 14.4819 82.1082 14.1465 82.1082 13.7582C82.1082 13.2287 82.3553 12.8139 82.8495 12.5138C83.3613 12.1961 84.0938 12.0372 85.047 12.0372C85.7354 12.0372 86.4061 12.1255 87.0591 12.302C87.7122 12.4785 88.3388 12.6903 88.9389 12.9374L89.7332 11.0841C89.0801 10.7841 88.3741 10.5546 87.6151 10.3957C86.8738 10.2192 86.0707 10.131 85.2058 10.131C83.6173 10.131 82.3288 10.4575 81.3404 11.1106C80.3696 11.7637 79.8842 12.6903 79.8842 13.8906C79.8842 14.6672 80.0607 15.3026 80.4137 15.7968C80.7667 16.291 81.2697 16.7147 81.9228 17.0677C82.5759 17.4207 83.3613 17.7737 84.2792 18.1267C85.2147 18.4797 85.9295 18.7974 86.4237 19.0798C86.9356 19.3622 87.2886 19.6447 87.4828 19.9271C87.6769 20.2095 87.774 20.5272 87.774 20.8802C87.774 21.5156 87.5092 22.0275 86.9797 22.4158C86.4502 22.7865 85.5941 22.9718 84.4116 22.9718C83.582 22.9718 82.7612 22.8571 81.9493 22.6276C81.3621 22.4449 80.8376 22.2526 80.3758 22.0506C80.2129 21.9794 80.0579 21.907 79.9107 21.8333V23.9514C80.4578 24.2338 81.0844 24.4544 81.7904 24.6133C82.5141 24.7722 83.3702 24.8516 84.3586 24.8516C86.0884 24.8516 87.4651 24.4986 88.4888 23.7925C89.5126 23.0865 90.0244 22.0451 90.0244 20.6684C90.0244 19.9094 89.8568 19.2828 89.5214 18.7886ZM100.178 24.428C99.9313 24.5515 99.5783 24.6486 99.1193 24.7192C98.6604 24.8075 98.2192 24.8516 97.7955 24.8516C97.0542 24.8516 96.3658 24.728 95.7304 24.4809C95.1127 24.2162 94.6096 23.7661 94.2213 23.1306C93.833 22.4952 93.6388 21.6039 93.6388 20.4566V12.1961H91.6267V11.0841L93.6653 10.1575L94.592 7.1392H95.9687V10.3957H100.072V12.1961H95.9687V20.4036C95.9687 21.2685 96.1717 21.9128 96.5777 22.3364C97.0013 22.7423 97.5396 22.9453 98.1927 22.9453C98.5457 22.9453 98.9075 22.9188 99.2782 22.8659C99.436 22.8358 99.581 22.8058 99.7132 22.7757C99.8916 22.7352 100.047 22.6946 100.178 22.6541V24.428ZM99.2018 22.4069C99.5588 22.3387 99.837 22.2725 100.042 22.2095L100.644 22.0243V24.7154L100.386 24.844C100.078 24.998 99.6738 25.104 99.1986 25.1776C98.7167 25.2698 98.2488 25.3167 97.7955 25.3167C97.0016 25.3167 96.2555 25.1842 95.5618 24.9144L95.5545 24.9116L95.5472 24.9084C94.8312 24.6016 94.2574 24.0816 93.8244 23.3732C93.3735 22.6354 93.1737 21.6469 93.1737 20.4566V12.6612H91.1615V10.7846L93.2821 9.82069L94.2482 6.67407H96.4338V9.9306H100.538V12.6612H96.4338V20.4036C96.4338 21.1986 96.6197 21.7032 96.9068 22.0075C97.2326 22.3163 97.6489 22.4802 98.1927 22.4802C98.5191 22.4802 98.8554 22.456 99.2018 22.4069ZM105.815 25.052H102.555V4H105.815V25.052ZM120.769 25.052H118.237L117.885 23.4775C117.391 23.9946 116.869 24.406 116.317 24.7039C115.549 25.1274 114.525 25.3167 113.288 25.3167C111.915 25.3167 110.74 24.9579 109.795 24.2102L109.791 24.2065C108.802 23.403 108.348 22.1804 108.348 20.6419C108.348 19.0859 108.972 17.853 110.217 17.0025C111.439 16.1502 113.259 15.7212 115.603 15.6496C115.603 15.6496 115.603 15.6496 115.603 15.6496L117.562 15.5851V15.1879C117.562 14.0472 117.31 13.3964 116.949 13.0719C116.549 12.7134 115.951 12.5024 115.088 12.5024C114.396 12.5024 113.741 12.6094 113.121 12.8215L113.115 12.8233L113.11 12.825C112.459 13.0306 111.854 13.2695 111.293 13.5413L110.847 13.7575L109.787 11.1655L110.153 10.9666C110.809 10.6109 111.575 10.3168 112.447 10.0803C113.337 9.82123 114.262 9.69232 115.22 9.69232C117.006 9.69232 118.422 10.0823 119.373 10.9527C120.337 11.8347 120.769 13.196 120.769 14.9231V25.052ZM112.573 10.5281C111.726 10.7576 110.993 11.04 110.375 11.3753L111.09 13.1228C111.229 13.0557 111.369 12.9906 111.513 12.9274C111.973 12.7249 112.459 12.5429 112.97 12.3814C113.641 12.152 114.347 12.0372 115.088 12.0372C116.024 12.0372 116.747 12.2667 117.259 12.7256C117.771 13.1845 118.027 14.0053 118.027 15.1879V16.0351L115.618 16.1145C113.305 16.1851 111.593 16.6088 110.481 17.3854C109.369 18.1444 108.813 19.2299 108.813 20.6419C108.813 22.0893 109.237 23.1571 110.084 23.8455C110.931 24.5162 111.999 24.8516 113.288 24.8516C114.488 24.8516 115.423 24.6663 116.094 24.2956C116.675 23.9829 117.23 23.5258 117.761 22.9242C117.851 22.8215 117.941 22.7146 118.03 22.6035C118.038 22.5939 118.046 22.5843 118.053 22.5747H118.159L118.609 24.5868H120.304V14.9231C120.304 13.264 119.889 12.0549 119.059 11.2959C118.23 10.5369 116.95 10.1575 115.22 10.1575C114.303 10.1575 113.42 10.281 112.573 10.5281ZM112.502 18.953C111.963 19.3515 111.688 19.9033 111.688 20.6684C111.688 21.366 111.892 21.7898 112.22 22.0463C112.616 22.3422 113.137 22.5067 113.817 22.5067C114.927 22.5067 115.814 22.2071 116.511 21.6347C117.168 21.0788 117.535 20.2064 117.535 18.921V18.1333L115.927 18.1943C115.927 18.1943 115.928 18.1943 115.927 18.1943C114.176 18.2644 113.072 18.5454 112.502 18.953ZM115.909 17.7296C114.144 17.8002 112.917 18.0826 112.229 18.5768C111.558 19.071 111.223 19.7682 111.223 20.6684C111.223 21.4627 111.461 22.0451 111.937 22.4158C112.432 22.7865 113.058 22.9718 113.817 22.9718C115.017 22.9718 116.015 22.6453 116.809 21.9922C117.603 21.3215 118 20.2977 118 18.921V17.6502L115.909 17.7296ZM131.412 24.428C131.165 24.5515 130.812 24.6486 130.353 24.7192C129.894 24.8075 129.452 24.8516 129.029 24.8516C128.288 24.8516 127.599 24.728 126.964 24.4809C126.346 24.2162 125.843 23.7661 125.455 23.1306C125.066 22.4952 124.872 21.6039 124.872 20.4566V12.1961H122.86V11.0841L124.899 10.1575L125.825 7.1392H127.202V10.3957H131.306V12.1961H127.202V20.4036C127.202 21.2685 127.405 21.9128 127.811 22.3364C128.235 22.7423 128.773 22.9453 129.426 22.9453C129.779 22.9453 130.141 22.9188 130.511 22.8659C130.669 22.8358 130.814 22.8058 130.947 22.7757C131.125 22.7352 131.28 22.6946 131.412 22.6541V24.428ZM130.435 22.4069C130.792 22.3387 131.07 22.2725 131.275 22.2095L131.877 22.0243V24.7154L131.62 24.844C131.312 24.998 130.907 25.104 130.432 25.1776C129.95 25.2698 129.482 25.3167 129.029 25.3167C128.235 25.3167 127.489 25.1842 126.795 24.9144L126.788 24.9116L126.78 24.9084C126.065 24.6016 125.491 24.0816 125.058 23.3732C124.607 22.6354 124.407 21.6469 124.407 20.4566V12.6612H122.395V10.7846L124.515 9.82069L125.481 6.67407H127.667V9.9306H131.771V12.6612H127.667V20.4036C127.667 21.1986 127.853 21.7032 128.14 22.0075C128.466 22.3163 128.882 22.4802 129.426 22.4802C129.752 22.4802 130.089 22.456 130.435 22.4069ZM144.95 23.9249C144.226 24.2426 143.511 24.4721 142.805 24.6133C142.099 24.7722 141.261 24.8516 140.29 24.8516C138.948 24.8516 137.757 24.578 136.716 24.0308C135.692 23.4837 134.889 22.6717 134.306 21.595C133.741 20.5007 133.459 19.1681 133.459 17.5972C133.459 16.0439 133.715 14.7113 134.227 13.5993C134.756 12.4873 135.489 11.6313 136.424 11.0312C137.377 10.431 138.481 10.131 139.734 10.131C140.952 10.131 141.993 10.3957 142.858 10.9253C143.74 11.4548 144.411 12.2049 144.87 13.1757C145.347 14.1288 145.585 15.2497 145.585 16.5381V17.9414H135.868C135.872 18.1001 135.879 18.2552 135.89 18.4065C135.987 19.7864 136.386 20.858 137.086 21.6215C137.88 22.4511 138.984 22.8659 140.396 22.8659C141.296 22.8659 142.09 22.7865 142.779 22.6276C143.336 22.4882 143.905 22.3048 144.484 22.0773C144.639 22.0167 144.794 21.9531 144.95 21.8863V23.9249ZM142.67 22.1753C142.025 22.3238 141.268 22.4008 140.396 22.4008C139.082 22.4008 138.113 22.0188 137.426 21.3035C136.825 20.6457 136.452 19.6967 136.356 18.4065H146.05V16.5381C146.05 15.1942 145.802 14.0009 145.288 12.972C144.792 11.9249 144.061 11.1054 143.099 10.5274C142.148 9.94565 141.019 9.66585 139.734 9.66585C138.403 9.66585 137.212 9.98555 136.176 10.6375L136.173 10.6397C135.157 11.2916 134.37 12.2178 133.807 13.3993L133.804 13.4048C133.258 14.5919 132.994 15.9942 132.994 17.5972C132.994 19.2224 133.286 20.6324 133.893 21.8084L133.897 21.8164C134.521 22.9687 135.388 23.8485 136.496 24.4411L136.499 24.4426C137.616 25.0295 138.884 25.3167 140.29 25.3167C141.282 25.3167 142.154 25.2359 142.902 25.0683C143.642 24.9198 144.387 24.6799 145.137 24.3508L145.415 24.2287V21.1809L144.766 21.4588C144.047 21.7671 143.348 22.0055 142.67 22.1753ZM141.928 13.4519L141.925 13.4477C141.488 12.8417 140.784 12.5024 139.707 12.5024C138.706 12.5024 137.957 12.8227 137.405 13.4344C136.937 13.9552 136.61 14.6744 136.451 15.6229H142.662C142.587 14.7176 142.334 14.0022 141.928 13.4519ZM143.128 15.6229C143.14 15.7739 143.147 15.929 143.149 16.0881H135.921C135.937 15.9286 135.956 15.7735 135.98 15.6229C136.144 14.5736 136.504 13.7402 137.06 13.1228C137.713 12.3991 138.595 12.0372 139.707 12.0372C140.89 12.0372 141.755 12.4167 142.302 13.1757C142.777 13.8188 143.052 14.6345 143.128 15.6229ZM156.736 12.3461C156.636 12.3301 156.533 12.3154 156.426 12.302C156.161 12.2667 155.905 12.2491 155.658 12.2491C154.934 12.2491 154.255 12.452 153.619 12.858C152.984 13.2463 152.472 13.8023 152.084 14.526C151.713 15.232 151.528 16.0616 151.528 17.0147V24.5868H149.198V10.3957H151.104L151.369 12.9904H151.475C151.477 12.9865 151.479 12.9827 151.481 12.9789C151.577 12.817 151.679 12.6597 151.787 12.507C152.192 11.9319 152.679 11.4223 153.248 10.9782C153.972 10.4134 154.828 10.131 155.817 10.131C156.081 10.131 156.364 10.1486 156.664 10.1839C156.982 10.2016 157.255 10.2369 157.485 10.2898L157.193 12.4344C157.051 12.4015 156.899 12.3721 156.736 12.3461ZM156.704 9.72032C156.394 9.68428 156.098 9.66585 155.817 9.66585C154.733 9.66585 153.774 9.97788 152.962 10.6115C152.496 10.9752 152.081 11.3809 151.718 11.8284L151.524 9.9306H148.733V25.052H151.993V17.0147C151.993 16.1233 152.166 15.3714 152.494 14.7443C152.848 14.0866 153.304 13.5955 153.862 13.2549L153.87 13.25C154.434 12.8897 155.027 12.7142 155.658 12.7142C155.883 12.7142 156.118 12.7303 156.364 12.7631L156.368 12.7635C156.638 12.7973 156.878 12.8389 157.089 12.8876L157.586 13.0023L158.003 9.93201L157.589 9.83661C157.33 9.77689 157.034 9.73925 156.704 9.72032ZM105.35 24.5868V4.46513H103.02V24.5868H105.35Z" fill="white"></path>
                    <path d="M166.394 9.97481V8.66943H167.314V9.97481H166.394ZM166.48 24.5693V13.6555H167.229V24.5693H166.48ZM175.582 24.7405C174.113 24.7405 173.064 24.5979 172.436 24.3125C171.809 24.0272 171.409 23.5208 171.238 22.7932C171.067 22.0656 170.981 20.8458 170.981 19.1338C170.981 17.4219 171.067 16.2021 171.238 15.4745C171.409 14.7327 171.809 14.2191 172.436 13.9337C173.064 13.6341 174.113 13.4843 175.582 13.4843C177.052 13.4843 178.1 13.6341 178.728 13.9337C179.356 14.2191 179.755 14.7327 179.926 15.4745C180.097 16.2021 180.183 17.4219 180.183 19.1338C180.183 20.8458 180.097 22.0656 179.926 22.7932C179.755 23.5208 179.356 24.0272 178.728 24.3125C178.1 24.5979 177.052 24.7405 175.582 24.7405ZM175.582 24.0557C176.895 24.0557 177.801 23.9416 178.3 23.7134C178.813 23.4708 179.127 23.05 179.241 22.4508C179.37 21.8373 179.434 20.7317 179.434 19.1338C179.434 17.536 179.37 16.4304 179.241 15.8169C179.127 15.2034 178.813 14.7755 178.3 14.5329C177.786 14.2904 176.88 14.1691 175.582 14.1691C174.284 14.1691 173.378 14.2904 172.864 14.5329C172.351 14.7755 172.03 15.2034 171.901 15.8169C171.787 16.4304 171.73 17.536 171.73 19.1338C171.73 20.7317 171.787 21.8373 171.901 22.4508C172.03 23.05 172.344 23.4708 172.843 23.7134C173.357 23.9416 174.27 24.0557 175.582 24.0557Z" fill="black"></path>
                    <path d="M166.394 9.97481H166.018V10.3508H166.394V9.97481ZM166.394 8.66943V8.29348H166.018V8.66943H166.394ZM167.314 8.66943H167.69V8.29348H167.314V8.66943ZM167.314 9.97481V10.3508H167.69V9.97481H167.314ZM166.48 24.5693H166.104V24.9453H166.48V24.5693ZM166.48 13.6555V13.2796H166.104V13.6555H166.48ZM167.229 13.6555H167.605V13.2796H167.229V13.6555ZM167.229 24.5693V24.9453H167.605V24.5693H167.229ZM166.77 9.97481V8.66943H166.018V9.97481H166.77ZM166.394 9.04539H167.314V8.29348H166.394V9.04539ZM166.938 8.66943V9.97481H167.69V8.66943H166.938ZM167.314 9.59886H166.394V10.3508H167.314V9.59886ZM166.856 24.5693V13.6555H166.104V24.5693H166.856ZM166.48 14.0315H167.229V13.2796H166.48V14.0315ZM166.853 13.6555V24.5693H167.605V13.6555H166.853ZM167.229 24.1934H166.48V24.9453H167.229V24.1934ZM172.436 24.3125L172.281 24.6548L172.436 24.3125ZM171.238 22.7932L171.604 22.7071L171.238 22.7932ZM171.238 15.4745L171.604 15.5606L171.604 15.559L171.238 15.4745ZM172.436 13.9337L172.592 14.276L172.598 14.273L172.436 13.9337ZM178.728 13.9337L178.566 14.2731L178.572 14.276L178.728 13.9337ZM179.926 15.4745L179.56 15.559L179.56 15.5606L179.926 15.4745ZM179.926 22.7932L180.292 22.8793L179.926 22.7932ZM178.728 24.3125L178.572 23.9703L178.728 24.3125ZM178.3 23.7134L178.456 24.0553L178.46 24.0533L178.3 23.7134ZM179.241 22.4508L178.873 22.3737L178.872 22.3804L179.241 22.4508ZM179.241 15.8169L178.872 15.8857L178.874 15.8939L179.241 15.8169ZM178.3 14.5329L178.139 14.8729L178.3 14.5329ZM172.864 14.5329L173.025 14.8729L172.864 14.5329ZM171.901 15.8169L171.533 15.7399L171.532 15.7481L171.901 15.8169ZM171.901 22.4508L171.532 22.5196L171.534 22.5295L171.901 22.4508ZM172.843 23.7134L172.679 24.0517L172.69 24.0569L172.843 23.7134ZM175.582 24.3646C174.119 24.3646 173.141 24.2198 172.592 23.9703L172.281 24.6548C172.987 24.9759 174.106 25.1165 175.582 25.1165V24.3646ZM172.592 23.9703C172.08 23.7376 171.751 23.3323 171.604 22.7071L170.872 22.8793C171.067 23.7092 171.537 24.3168 172.281 24.6548L172.592 23.9703ZM171.604 22.7071C171.444 22.0257 171.357 20.8443 171.357 19.1338H170.605C170.605 20.8474 170.69 22.1055 170.872 22.8793L171.604 22.7071ZM171.357 19.1338C171.357 17.4234 171.444 16.242 171.604 15.5606L170.872 15.3884C170.69 16.1622 170.605 17.4203 170.605 19.1338H171.357ZM171.604 15.559C171.752 14.9176 172.083 14.5074 172.592 14.276L172.281 13.5915C171.534 13.9307 171.066 14.5477 170.872 15.39L171.604 15.559ZM172.598 14.273C173.145 14.0122 174.12 13.8603 175.582 13.8603V13.1084C174.106 13.1084 172.984 13.256 172.274 13.5944L172.598 14.273ZM175.582 13.8603C177.044 13.8603 178.02 14.0122 178.566 14.273L178.89 13.5944C178.181 13.256 177.059 13.1084 175.582 13.1084V13.8603ZM178.572 14.276C179.081 14.5074 179.412 14.9176 179.56 15.559L180.293 15.39C180.098 14.5477 179.63 13.9307 178.883 13.5915L178.572 14.276ZM179.56 15.5606C179.721 16.242 179.807 17.4234 179.807 19.1338H180.559C180.559 17.4203 180.474 16.1622 180.292 15.3884L179.56 15.5606ZM179.807 19.1338C179.807 20.8443 179.721 22.0257 179.56 22.7071L180.292 22.8793C180.474 22.1055 180.559 20.8474 180.559 19.1338H179.807ZM179.56 22.7071C179.413 23.3323 179.084 23.7376 178.572 23.9703L178.883 24.6548C179.627 24.3168 180.097 23.7092 180.292 22.8793L179.56 22.7071ZM178.572 23.9703C178.023 24.2198 177.045 24.3646 175.582 24.3646V25.1165C177.058 25.1165 178.177 24.9759 178.883 24.6548L178.572 23.9703ZM175.582 24.4317C176.894 24.4317 177.875 24.321 178.456 24.0553L178.144 23.3714C177.726 23.5622 176.896 23.6798 175.582 23.6798V24.4317ZM178.46 24.0533C179.092 23.7552 179.476 23.2282 179.611 22.5211L178.872 22.3804C178.779 22.8717 178.535 23.1865 178.139 23.3734L178.46 24.0533ZM179.609 22.5278C179.747 21.8716 179.81 20.7298 179.81 19.1338H179.058C179.058 20.7335 178.993 21.803 178.874 22.3738L179.609 22.5278ZM179.81 19.1338C179.81 17.5378 179.747 16.3961 179.609 15.7399L178.874 15.8939C178.993 16.4646 179.058 17.5342 179.058 19.1338H179.81ZM179.611 15.7481C179.477 15.0296 179.095 14.4927 178.46 14.193L178.139 14.8729C178.532 15.0582 178.777 15.3773 178.872 15.8857L179.611 15.7481ZM178.46 14.193C177.864 13.9113 176.882 13.7932 175.582 13.7932V14.5451C176.879 14.5451 177.709 14.6695 178.139 14.8729L178.46 14.193ZM175.582 13.7932C174.282 13.7932 173.3 13.9113 172.704 14.193L173.025 14.8729C173.456 14.6695 174.286 14.5451 175.582 14.5451V13.7932ZM172.704 14.193C172.072 14.4915 171.683 15.0249 171.533 15.7399L172.269 15.8939C172.377 15.382 172.63 15.0594 173.025 14.8729L172.704 14.193ZM171.532 15.7481C171.411 16.3999 171.354 17.5377 171.354 19.1338H172.106C172.106 17.5343 172.164 16.4608 172.271 15.8857L171.532 15.7481ZM171.354 19.1338C171.354 20.73 171.411 21.8678 171.532 22.5195L172.271 22.382C172.164 21.8068 172.106 20.7334 172.106 19.1338H171.354ZM171.534 22.5295C171.684 23.2284 172.064 23.7527 172.679 24.0515L173.007 23.3752C172.624 23.1889 172.376 22.8715 172.269 22.372L171.534 22.5295ZM172.69 24.0569C173.284 24.3206 174.269 24.4317 175.582 24.4317V23.6798C174.27 23.6798 173.429 23.5626 172.996 23.3698L172.69 24.0569Z" fill="black"></path>
                    <rect width="3.12016" height="3.12016" rx="0.636406" transform="matrix(1 0 0 -1 156.611 25.1436)" fill="#FFA903"></rect>
                    <path d="M7.24987 2.3391C7.28376 2.14313 7.45378 2 7.65266 2H37.5145C37.7681 2 37.9605 2.22854 37.9172 2.47844L32.7501 32.3524C32.7162 32.5483 32.5462 32.6915 32.3473 32.6915H2.48554C2.23193 32.6915 2.03953 32.4629 2.08275 32.213L7.24987 2.3391Z" fill="#8726E8" stroke="#8726E8" stroke-width="2.86139"></path>
                    <g filter="url(#filter0_i_1348_2839)">
                        <path fill-rule="evenodd" clip-rule="evenodd" d="M16.9234 9.33984C15.8191 9.33984 15.1541 10.5636 15.7549 11.4902L19.5508 17.3447C19.5508 17.3448 19.5508 17.345 19.5506 17.345C19.5506 17.345 19.5506 17.345 19.5505 17.345L14.0257 22.983C13.1621 23.8644 13.7865 25.3505 15.0205 25.3505H18.2783C18.8397 25.3505 19.3775 25.1245 19.7704 24.7235L27.0004 17.3455C27.0005 17.3454 27.0006 17.3453 27.0007 17.3453C27.001 17.3453 27.0012 17.345 27.001 17.3447L22.4285 10.2924C22.0434 9.69838 21.3836 9.33984 20.6757 9.33984H16.9234Z" fill="white"></path>
                    </g>
                    <defs>
                        <filter id="filter0_i_1348_2839" x="13.625" y="9.33984" width="13.3761" height="17.4034" filterUnits="userSpaceOnUse" color-interpolation-filters="sRGB">
                            <feFlood flood-opacity="0" result="BackgroundImageFix"></feFlood>
                            <feBlend mode="normal" in="SourceGraphic" in2="BackgroundImageFix" result="shape"></feBlend>
                            <feColorMatrix in="SourceAlpha" type="matrix" values="0 0 0 0 0 0 0 0 0 0 0 0 0 0 0 0 0 0 127 0" result="hardAlpha"></feColorMatrix>
                            <feOffset dy="1.3927"></feOffset>
                            <feGaussianBlur stdDeviation="0.696348"></feGaussianBlur>
                            <feComposite in2="hardAlpha" operator="arithmetic" k2="-1" k3="1"></feComposite>
                            <feColorMatrix type="matrix" values="0 0 0 0 0 0 0 0 0 0 0 0 0 0 0 0 0 0 0.25 0"></feColorMatrix>
                            <feBlend mode="normal" in2="shape" result="effect1_innerShadow_1348_2839"></feBlend>
                        </filter>
                    </defs>
                </svg>